<?xml version="1.0" encoding="UTF-8" standalone="no"?>
<!-- Generator: Adobe Illustrator 16.0.0, SVG Export Plug-In . SVG Version: 6.00 Build 0)  -->

<svg
   xmlns:dc="http://purl.org/dc/elements/1.1/"
   xmlns:cc="http://creativecommons.org/ns#"
   xmlns:rdf="http://www.w3.org/1999/02/22-rdf-syntax-ns#"
   xmlns:svg="http://www.w3.org/2000/svg"
   xmlns="http://www.w3.org/2000/svg"
   xmlns:sodipodi="http://sodipodi.sourceforge.net/DTD/sodipodi-0.dtd"
   xmlns:inkscape="http://www.inkscape.org/namespaces/inkscape"
   version="1.1"
   id="Capa_1"
   x="0px"
   y="0px"
   width="64.038498"
   height="98.148499"
   viewBox="0 0 64.038496 98.148496"
   xml:space="preserve"
   inkscape:version="0.91 r13725"
   sodipodi:docname="arrow6211.svg"><metadata
     id="metadata41"><rdf:RDF><cc:Work
         rdf:about=""><dc:format>image/svg+xml</dc:format><dc:type
           rdf:resource="http://purl.org/dc/dcmitype/StillImage" /><dc:title></dc:title></cc:Work></rdf:RDF></metadata><defs
     id="defs39" /><sodipodi:namedview
     pagecolor="#ffffff"
     bordercolor="#666666"
     borderopacity="1"
     objecttolerance="10"
     gridtolerance="10"
     guidetolerance="10"
     inkscape:pageopacity="0"
     inkscape:pageshadow="2"
     inkscape:window-width="1680"
     inkscape:window-height="991"
     id="namedview37"
     showgrid="false"
     fit-margin-top="0"
     fit-margin-left="0"
     fit-margin-right="0"
     fit-margin-bottom="0"
     inkscape:zoom="2.4045319"
     inkscape:cx="32.019001"
     inkscape:cy="49.074499"
     inkscape:window-x="0"
     inkscape:window-y="30"
     inkscape:window-maximized="1"
     inkscape:current-layer="Capa_1" /><g
     id="g3"
     style="fill:#ffffff"
     transform="translate(-17.055,0)"><path
       d="M 33.458,97.562 80.531,50.49 c 0.75,-0.75 0.75,-2.078 0,-2.828 L 33.456,0.586 C 33.081,0.211 32.572,0 32.042,0 31.512,0 31.003,0.211 30.628,0.586 L 17.641,13.573 c -0.391,0.391 -0.586,0.902 -0.586,1.414 0,0.512 0.195,1.023 0.586,1.414 L 50.315,49.075 17.642,81.75 c -0.751,0.75 -0.75,2.078 0,2.828 l 12.987,12.984 c 0.782,0.782 2.048,0.782 2.829,0 z"
       id="path5"
       style="fill:#ffffff"
       inkscape:connector-curvature="0" /></g><g
     id="g7"
     transform="translate(-17.055,0)" /><g
     id="g9"
     transform="translate(-17.055,0)" /><g
     id="g11"
     transform="translate(-17.055,0)" /><g
     id="g13"
     transform="translate(-17.055,0)" /><g
     id="g15"
     transform="translate(-17.055,0)" /><g
     id="g17"
     transform="translate(-17.055,0)" /><g
     id="g19"
     transform="translate(-17.055,0)" /><g
     id="g21"
     transform="translate(-17.055,0)" /><g
     id="g23"
     transform="translate(-17.055,0)" /><g
     id="g25"
     transform="translate(-17.055,0)" /><g
     id="g27"
     transform="translate(-17.055,0)" /><g
     id="g29"
     transform="translate(-17.055,0)" /><g
     id="g31"
     transform="translate(-17.055,0)" /><g
     id="g33"
     transform="translate(-17.055,0)" /><g
     id="g35"
     transform="translate(-17.055,0)" /></svg>