<?xml version="1.0" encoding="UTF-8" standalone="no"?>
<!-- Created with Inkscape (http://www.inkscape.org/) -->

<svg
   xmlns:dc="http://purl.org/dc/elements/1.1/"
   xmlns:cc="http://creativecommons.org/ns#"
   xmlns:rdf="http://www.w3.org/1999/02/22-rdf-syntax-ns#"
   xmlns:svg="http://www.w3.org/2000/svg"
   xmlns="http://www.w3.org/2000/svg"
   xmlns:sodipodi="http://sodipodi.sourceforge.net/DTD/sodipodi-0.dtd"
   xmlns:inkscape="http://www.inkscape.org/namespaces/inkscape"
   width="8.0634928mm"
   height="10.48254mm"
   viewBox="0 0 28.571431 37.142859"
   id="svg2"
   version="1.1"
   inkscape:version="0.91 r13725"
   sodipodi:docname="vk2.svg">
  <defs
     id="defs4" />
  <sodipodi:namedview
     id="base"
     pagecolor="#ffffff"
     bordercolor="#666666"
     borderopacity="1.0"
     inkscape:pageopacity="0.0"
     inkscape:pageshadow="2"
     inkscape:zoom="0.35"
     inkscape:cx="-766.40574"
     inkscape:cy="-617.13029"
     inkscape:document-units="px"
     inkscape:current-layer="layer1"
     showgrid="false"
     inkscape:window-width="1680"
     inkscape:window-height="991"
     inkscape:window-x="0"
     inkscape:window-y="30"
     inkscape:window-maximized="1"
     fit-margin-top="0"
     fit-margin-left="0"
     fit-margin-right="0"
     fit-margin-bottom="0" />
  <metadata
     id="metadata7">
    <rdf:RDF>
      <cc:Work
         rdf:about="">
        <dc:format>image/svg+xml</dc:format>
        <dc:type
           rdf:resource="http://purl.org/dc/dcmitype/StillImage" />
        <dc:title></dc:title>
      </cc:Work>
    </rdf:RDF>
  </metadata>
  <g
     inkscape:label="Layer 1"
     inkscape:groupmode="layer"
     id="layer1"
     transform="translate(-317.14258,-432.36248)">
    <g
       style="font-style:normal;font-weight:normal;font-size:40px;line-height:125%;font-family:sans-serif;letter-spacing:0px;word-spacing:0px;fill:#ffffff;fill-opacity:1;stroke:none;stroke-width:1px;stroke-linecap:butt;stroke-linejoin:miter;stroke-opacity:1"
       id="flowRoot4166">
      <path
         d="m 317.14258,445.68834 c 0,2.9241 1.16071,7.1875 4.35268,8.14732 0.1116,0.0223 0.26785,0.067 0.37946,0.067 0.73661,0 1.16072,-2.05357 1.16072,-2.63393 0,-0.69196 -1.7634,-2.16517 -1.7634,-5.04464 0,-5.98214 4.55357,-10.22321 10.44643,-10.22321 5.06697,0 8.81697,2.87946 8.81697,8.16964 0,3.95089 -1.58483,11.36161 -6.71875,11.36161 -1.85268,0 -3.4375,-1.33929 -3.4375,-3.25893 0,-2.8125 1.96428,-5.53572 1.96428,-8.4375 0,-1.76339 -1.00446,-3.19197 -2.87946,-3.19197 -2.54465,0 -4.10715,2.85715 -4.10715,5.11161 0,1.25 0.15625,2.63393 0.71429,3.77232 -1.02679,4.41965 -3.125,11.00447 -3.125,15.55804 0,1.40625 0.20089,2.79018 0.33482,4.19643 l 0.20089,0.22321 0.3125,-0.11161 c 3.75,-5.13392 3.61608,-6.13839 5.3125,-12.85714 0.91518,1.74107 3.28125,2.67857 5.15625,2.67857 7.90179,0 11.4509,-7.70089 11.4509,-14.64285 0,-7.3884 -6.38393,-12.20983 -13.39286,-12.20983 -7.63393,0 -15.17857,5.08929 -15.17857,13.3259 z"
         style="fill:#ffffff"
         id="path4175"
         inkscape:connector-curvature="0" />
    </g>
  </g>
</svg>
