<?xml version="1.0" encoding="UTF-8" standalone="no"?>
<!-- Created with Inkscape (http://www.inkscape.org/) -->

<svg
   xmlns:dc="http://purl.org/dc/elements/1.1/"
   xmlns:cc="http://creativecommons.org/ns#"
   xmlns:rdf="http://www.w3.org/1999/02/22-rdf-syntax-ns#"
   xmlns:svg="http://www.w3.org/2000/svg"
   xmlns="http://www.w3.org/2000/svg"
   xmlns:sodipodi="http://sodipodi.sourceforge.net/DTD/sodipodi-0.dtd"
   xmlns:inkscape="http://www.inkscape.org/namespaces/inkscape"
   width="12.099521mm"
   height="6.9032555mm"
   viewBox="0 0 42.872317 24.460354"
   id="svg2"
   version="1.1"
   inkscape:version="0.91 r13725"
   sodipodi:docname="vk2.svg">
  <defs
     id="defs4" />
  <sodipodi:namedview
     id="base"
     pagecolor="#ffffff"
     bordercolor="#666666"
     borderopacity="1.0"
     inkscape:pageopacity="0.0"
     inkscape:pageshadow="2"
     inkscape:zoom="0.35"
     inkscape:cx="-449.26316"
     inkscape:cy="-34.273421"
     inkscape:document-units="px"
     inkscape:current-layer="layer1"
     showgrid="false"
     fit-margin-top="0"
     fit-margin-left="0"
     fit-margin-right="0"
     fit-margin-bottom="0"
     inkscape:window-width="1680"
     inkscape:window-height="991"
     inkscape:window-x="0"
     inkscape:window-y="30"
     inkscape:window-maximized="1" />
  <metadata
     id="metadata7">
    <rdf:RDF>
      <cc:Work
         rdf:about="">
        <dc:format>image/svg+xml</dc:format>
        <dc:type
           rdf:resource="http://purl.org/dc/dcmitype/StillImage" />
        <dc:title></dc:title>
      </cc:Work>
    </rdf:RDF>
  </metadata>
  <g
     inkscape:label="Layer 1"
     inkscape:groupmode="layer"
     id="layer1"
     transform="translate(-271.40602,-473.62843)">
    <g
       style="font-style:normal;font-weight:normal;font-size:40px;line-height:125%;font-family:sans-serif;letter-spacing:0px;word-spacing:0px;fill:#ffffff;fill-opacity:1;stroke:none;stroke-width:1px;stroke-linecap:butt;stroke-linejoin:miter;stroke-opacity:1"
       id="flowRoot4136">
      <path
         d="m 314.21791,475.39732 c 0,0 -0.3125,-0.89286 -2.25446,-0.64732 l -6.42857,0.0446 c -0.49107,-0.067 -0.84822,0.13393 -0.84822,0.13393 0,0 -0.37946,0.20089 -0.55803,0.69197 -1.04911,2.70089 -2.3884,5.02232 -2.3884,5.02232 -2.85714,4.86607 -4.01785,5.13393 -4.4866,4.82143 -1.09375,-0.69197 -0.80357,-2.8125 -0.80357,-4.33036 0,-4.73214 0.71428,-6.69643 -1.40625,-7.20982 -0.69197,-0.15625 -1.20536,-0.26786 -3.0134,-0.29018 -2.2991,-0.0223 -4.24107,0 -5.33482,0.53571 -0.73661,0.35715 -1.29464,1.16072 -0.95982,1.20536 0.42411,0.067 1.38393,0.26786 1.89732,0.95982 0,0 0.55804,0.91518 0.64732,2.92411 0.24554,5.55803 -0.89285,6.25 -0.89285,6.25 -0.87054,0.46875 -2.3884,-0.3125 -4.62054,-4.91072 0,0 -1.29464,-2.27678 -2.29911,-4.77678 -0.17857,-0.46875 -0.53571,-0.71429 -0.53571,-0.71429 0,0 -0.40179,-0.3125 -0.98214,-0.40178 l -6.11608,0.0446 c -0.9375,0 -1.27232,0.42411 -1.27232,0.42411 0,0 -0.33482,0.35714 -0.0223,1.09375 4.77679,11.22768 10.22322,16.85268 10.22322,16.85268 0,0 4.97767,5.20089 10.625,4.84375 l 2.56696,0 c 0.78125,-0.067 1.18304,-0.49108 1.18304,-0.49108 0,0 0.35714,-0.40178 0.33482,-1.13839 -0.0446,-3.4375 1.5625,-3.95089 1.5625,-3.95089 1.5625,-0.49107 3.57143,3.32589 5.71428,4.79911 0,0 1.62947,1.11607 2.85715,0.87053 l 5.71428,-0.0893 c 3.01339,-0.0223 1.58482,-2.52233 1.58482,-2.52233 -0.1116,-0.20089 -0.82589,-1.74107 -4.26339,-4.93303 -3.57143,-3.32589 -3.10268,-2.79018 1.22768,-8.54911 2.63393,-3.50446 3.68303,-5.64732 3.34821,-6.5625 z"
         style="fill:#ffffff"
         id="path4145"
         inkscape:connector-curvature="0" />
    </g>
  </g>
</svg>
